<svg width="567" height="179" viewBox="0 0 567 179" fill="none" xmlns="http://www.w3.org/2000/svg">
<path d="M119.004 86.7188V117H104.473V47.1562H118.535V73.9219H119.192C120.379 70.8281 122.285 68.3906 124.91 66.6094C127.567 64.8281 130.879 63.9375 134.848 63.9375C140.285 63.9375 144.66 65.6875 147.973 69.1875C151.285 72.6875 152.942 77.5156 152.942 83.6719V117H138.457V86.25C138.457 83 137.645 80.4844 136.02 78.7031C134.395 76.8906 132.067 75.9844 129.035 75.9844C126.098 75.9844 123.692 76.9375 121.817 78.8438C119.942 80.7188 119.004 83.3438 119.004 86.7188ZM188.426 118.031C183.051 118.031 178.426 116.938 174.551 114.75C170.676 112.562 167.692 109.453 165.598 105.422C163.504 101.359 162.457 96.5625 162.457 91.0312C162.457 85.6562 163.489 80.9375 165.551 76.875C167.645 72.8125 170.582 69.6406 174.364 67.3594C178.145 65.0781 182.598 63.9375 187.723 63.9375C192.348 63.9375 196.52 64.9219 200.239 66.8906C203.989 68.8594 206.957 71.8125 209.145 75.75C211.364 79.6875 212.473 84.625 212.473 90.5625V94.5H176.754C176.91 98.4688 178.067 101.578 180.223 103.828C182.379 106.078 185.192 107.203 188.66 107.203C191.067 107.203 193.129 106.688 194.848 105.656C196.598 104.625 197.848 103.125 198.598 101.156L212.004 102.047C210.973 106.859 208.395 110.734 204.27 113.672C200.176 116.578 194.895 118.031 188.426 118.031ZM176.848 85.5469H198.551C198.207 82.2344 197.145 79.6094 195.364 77.6719C193.582 75.7344 191.082 74.7656 187.864 74.7656C184.614 74.7656 182.035 75.7812 180.129 77.8125C178.254 79.8125 177.16 82.3906 176.848 85.5469ZM222.035 117V64.5938H236.567V117H222.035ZM229.301 57.8906C227.145 57.8906 225.285 57.1719 223.723 55.7344C222.192 54.2969 221.426 52.5625 221.426 50.5312C221.426 48.5 222.192 46.7812 223.723 45.375C225.285 43.9375 227.145 43.2188 229.301 43.2188C231.457 43.2188 233.301 43.9375 234.832 45.375C236.395 46.7812 237.176 48.5 237.176 50.5312C237.176 52.5625 236.395 54.2969 234.832 55.7344C233.301 57.1719 231.457 57.8906 229.301 57.8906ZM248.192 117V64.5938H262.254V73.7812H262.817C263.754 70.5312 265.348 68.0781 267.598 66.4219C269.848 64.7344 272.442 63.8906 275.379 63.8906C276.098 63.8906 276.879 63.9375 277.723 64.0312C278.567 64.125 279.301 64.25 279.926 64.4062V77.25C279.239 77.0312 278.285 76.8594 277.067 76.7344C275.879 76.5781 274.785 76.5 273.785 76.5C270.598 76.5 267.957 77.5156 265.864 79.5469C263.77 81.5469 262.723 84.1562 262.723 87.375V117H248.192Z" fill="#37BB4E"/>
<path d="M302.426 117.984C297.426 117.984 293.27 116.688 289.957 114.094C286.676 111.469 285.035 107.562 285.035 102.375C285.035 98.4688 285.942 95.4062 287.754 93.1875C289.598 90.9375 292.02 89.2969 295.02 88.2656C298.02 87.2031 301.239 86.5156 304.676 86.2031C309.239 85.7656 312.489 85.3125 314.426 84.8438C316.395 84.3438 317.379 83.25 317.379 81.5625V81.3281C317.379 79.1719 316.692 77.5 315.317 76.3125C313.942 75.125 311.957 74.5312 309.364 74.5312C306.77 74.5312 304.645 75.0938 302.989 76.2188C301.364 77.3438 300.285 78.7812 299.754 80.5312L286.535 78.4219C287.785 73.8594 290.41 70.3125 294.41 67.7812C298.442 65.2188 303.442 63.9375 309.41 63.9375C313.285 63.9375 316.926 64.5469 320.332 65.7656C323.77 66.9844 326.551 68.9062 328.676 71.5312C330.801 74.125 331.864 77.5 331.864 81.6562V117H318.129V109.688H317.707C316.426 112.156 314.52 114.156 311.989 115.688C309.489 117.219 306.301 117.984 302.426 117.984ZM298.864 101.906C298.864 103.906 299.582 105.422 301.02 106.453C302.489 107.453 304.332 107.953 306.551 107.953C309.739 107.953 312.348 107.031 314.379 105.188C316.442 103.344 317.473 101.047 317.473 98.2969V92.7188C316.91 93.0938 316.02 93.4375 314.801 93.75C313.614 94.0625 312.348 94.3281 311.004 94.5469C309.66 94.7344 308.457 94.9062 307.395 95.0625C304.832 95.4375 302.77 96.1719 301.207 97.2656C299.645 98.3281 298.864 99.875 298.864 101.906ZM343.535 117V64.5938H357.598V73.7812H358.16C359.098 70.5312 360.692 68.0781 362.942 66.4219C365.192 64.7344 367.785 63.8906 370.723 63.8906C371.442 63.8906 372.223 63.9375 373.067 64.0312C373.91 64.125 374.645 64.25 375.27 64.4062V77.25C374.582 77.0312 373.629 76.8594 372.41 76.7344C371.223 76.5781 370.129 76.5 369.129 76.5C365.942 76.5 363.301 77.5156 361.207 79.5469C359.114 81.5469 358.067 84.1562 358.067 87.375V117H343.535ZM391.676 136.969C389.832 136.969 388.098 136.828 386.473 136.547C384.879 136.266 383.551 135.922 382.489 135.516L385.817 124.688L386.285 124.781C388.723 125.469 390.817 125.625 392.567 125.25C394.348 124.875 395.66 123.5 396.504 121.125L397.395 118.5L378.645 64.5938H393.879L404.754 103.078H405.317L416.239 64.5938H431.614L411.129 123.047C409.66 127.297 407.395 130.672 404.332 133.172C401.301 135.703 397.082 136.969 391.676 136.969Z" fill="black"/>
<rect x="4" y="66" width="47" height="47" stroke="#37BB4E" stroke-width="8"/>
<rect x="32" y="48" width="47" height="47" stroke="black" stroke-width="8"/>
</svg>
